<?xml version="1.0" standalone="no"?>
<!DOCTYPE svg PUBLIC "-//W3C//DTD SVG 20010904//EN"
 "http://www.w3.org/TR/2001/REC-SVG-20010904/DTD/svg10.dtd">
<svg version="1.0" xmlns="http://www.w3.org/2000/svg"
 width="93.000000pt" height="33.000000pt" viewBox="0 0 93.000000 33.000000"
 preserveAspectRatio="xMidYMid meet">

<g transform="translate(0.000000,33.000000) scale(0.100000,-0.100000)"
fill="#000000" stroke="none">
<path d="M667 249 c-3 -23 -13 -49 -22 -58 -9 -9 -144 -49 -318 -93 -166 -43
-288 -76 -272 -74 17 2 159 21 317 42 274 36 289 37 307 20 11 -10 25 -31 31
-47 15 -36 30 -28 30 16 0 45 31 77 104 106 l60 24 -78 6 c-83 7 -105 19 -126
70 -17 40 -26 36 -33 -12z"/>
</g>
</svg>
